<mxfile host="www.draw.io" modified="2019-11-05T17:22:21.484Z" agent="Mozilla/5.0 (Windows NT 10.0; Win64; x64; rv:70.0) Gecko/20100101 Firefox/70.0" etag="D_SE6539qpKiQIreb0Xt" version="12.2.0" type="github" pages="1">
  <diagram id="0FhvJ4OS0k5Z7UG15rpF" name="Page-1">
    <mxGraphModel dx="1209" dy="664" grid="1" gridSize="10" guides="1" tooltips="1" connect="1" arrows="1" fold="1" page="1" pageScale="1" pageWidth="850" pageHeight="1100" math="0" shadow="0">
      <root>
        <mxCell id="0"/>
        <mxCell id="1" parent="0"/>
        <mxCell id="MRnNkrN-hJjxFnHQ5Um4-1" value="&lt;div&gt;Vraboten&lt;/div&gt;" style="strokeWidth=2;whiteSpace=wrap;html=1;align=center;fontSize=14;" vertex="1" parent="1">
          <mxGeometry x="640" y="270" width="100" height="100" as="geometry"/>
        </mxCell>
        <mxCell id="MRnNkrN-hJjxFnHQ5Um4-2" value="&lt;div&gt;Ime&lt;/div&gt;" style="ellipse;shape=ellipse;margin=10;strokeWidth=2;fontSize=14;whiteSpace=wrap;html=1;align=center;gradientColor=#ffffff;" vertex="1" parent="1">
          <mxGeometry x="660" y="400" width="100" height="100" as="geometry"/>
        </mxCell>
        <mxCell id="MRnNkrN-hJjxFnHQ5Um4-5" value="&lt;div&gt;Prezime&lt;/div&gt;" style="ellipse;shape=ellipse;margin=10;strokeWidth=2;fontSize=14;whiteSpace=wrap;html=1;align=center;gradientColor=#ffffff;" vertex="1" parent="1">
          <mxGeometry x="530" y="380" width="100" height="100" as="geometry"/>
        </mxCell>
        <mxCell id="MRnNkrN-hJjxFnHQ5Um4-6" value="&lt;div&gt;&lt;u&gt;EMBG&lt;/u&gt;&lt;/div&gt;" style="ellipse;shape=ellipse;margin=10;strokeWidth=2;fontSize=14;whiteSpace=wrap;html=1;align=center;gradientColor=#ffffff;" vertex="1" parent="1">
          <mxGeometry x="820" y="150" width="100" height="100" as="geometry"/>
        </mxCell>
        <mxCell id="MRnNkrN-hJjxFnHQ5Um4-7" value="&lt;div&gt;Adresa&lt;/div&gt;" style="ellipse;shape=ellipse;margin=10;strokeWidth=2;fontSize=14;whiteSpace=wrap;html=1;align=center;gradientColor=#ffffff;" vertex="1" parent="1">
          <mxGeometry x="680" y="130" width="100" height="100" as="geometry"/>
        </mxCell>
        <mxCell id="MRnNkrN-hJjxFnHQ5Um4-8" value="&lt;div&gt;Ulica&lt;/div&gt;" style="ellipse;shape=ellipse;margin=10;strokeWidth=2;fontSize=14;whiteSpace=wrap;html=1;align=center;gradientColor=#ffffff;" vertex="1" parent="1">
          <mxGeometry x="610" y="10" width="100" height="100" as="geometry"/>
        </mxCell>
        <mxCell id="MRnNkrN-hJjxFnHQ5Um4-9" value="&lt;div&gt;Broj&lt;/div&gt;" style="ellipse;shape=ellipse;margin=10;strokeWidth=2;fontSize=14;whiteSpace=wrap;html=1;align=center;gradientColor=#ffffff;" vertex="1" parent="1">
          <mxGeometry x="720" y="10" width="100" height="100" as="geometry"/>
        </mxCell>
        <mxCell id="MRnNkrN-hJjxFnHQ5Um4-10" value="&lt;div&gt;Grad&lt;/div&gt;" style="ellipse;shape=ellipse;margin=10;strokeWidth=2;fontSize=14;whiteSpace=wrap;html=1;align=center;gradientColor=#ffffff;" vertex="1" parent="1">
          <mxGeometry x="890" y="20" width="100" height="100" as="geometry"/>
        </mxCell>
        <mxCell id="MRnNkrN-hJjxFnHQ5Um4-12" value="&lt;div&gt;Email&lt;/div&gt;" style="ellipse;shape=ellipse;margin=10;strokeWidth=2;fontSize=14;whiteSpace=wrap;html=1;align=center;gradientColor=#ffffff;" vertex="1" parent="1">
          <mxGeometry x="510" y="120" width="100" height="100" as="geometry"/>
        </mxCell>
        <mxCell id="MRnNkrN-hJjxFnHQ5Um4-13" value="Telefon" style="ellipse;shape=doubleEllipse;margin=10;strokeWidth=2;fontSize=14;whiteSpace=wrap;html=1;align=center;gradientColor=#ffffff;" vertex="1" parent="1">
          <mxGeometry x="470" y="270" width="100" height="100" as="geometry"/>
        </mxCell>
        <mxCell id="MRnNkrN-hJjxFnHQ5Um4-15" value="" style="fontSize=12;html=1;endArrow=none;endFill=0;" edge="1" parent="1" source="MRnNkrN-hJjxFnHQ5Um4-7" target="MRnNkrN-hJjxFnHQ5Um4-10">
          <mxGeometry width="100" height="100" relative="1" as="geometry">
            <mxPoint x="40" y="740" as="sourcePoint"/>
            <mxPoint x="140" y="640" as="targetPoint"/>
          </mxGeometry>
        </mxCell>
        <mxCell id="MRnNkrN-hJjxFnHQ5Um4-17" value="" style="fontSize=12;html=1;endArrow=none;endFill=0;exitX=0.7;exitY=0.02;exitDx=0;exitDy=0;exitPerimeter=0;" edge="1" parent="1" source="MRnNkrN-hJjxFnHQ5Um4-7" target="MRnNkrN-hJjxFnHQ5Um4-9">
          <mxGeometry width="100" height="100" relative="1" as="geometry">
            <mxPoint x="718" y="160" as="sourcePoint"/>
            <mxPoint x="840" y="100" as="targetPoint"/>
          </mxGeometry>
        </mxCell>
        <mxCell id="MRnNkrN-hJjxFnHQ5Um4-18" value="" style="fontSize=12;html=1;endArrow=none;endFill=0;entryX=0.5;entryY=1;entryDx=0;entryDy=0;" edge="1" parent="1" source="MRnNkrN-hJjxFnHQ5Um4-7" target="MRnNkrN-hJjxFnHQ5Um4-8">
          <mxGeometry width="100" height="100" relative="1" as="geometry">
            <mxPoint x="660" y="150" as="sourcePoint"/>
            <mxPoint x="850" y="110" as="targetPoint"/>
          </mxGeometry>
        </mxCell>
        <mxCell id="MRnNkrN-hJjxFnHQ5Um4-20" value="" style="fontSize=12;html=1;endArrow=none;endFill=0;entryX=0.93;entryY=0.81;entryDx=0;entryDy=0;entryPerimeter=0;exitX=0.05;exitY=-0.02;exitDx=0;exitDy=0;exitPerimeter=0;" edge="1" parent="1" source="MRnNkrN-hJjxFnHQ5Um4-1" target="MRnNkrN-hJjxFnHQ5Um4-12">
          <mxGeometry width="100" height="100" relative="1" as="geometry">
            <mxPoint x="704.6446609406726" y="154.64466094067257" as="sourcePoint"/>
            <mxPoint x="670" y="120" as="targetPoint"/>
          </mxGeometry>
        </mxCell>
        <mxCell id="MRnNkrN-hJjxFnHQ5Um4-21" value="" style="fontSize=12;html=1;endArrow=none;endFill=0;" edge="1" parent="1" source="MRnNkrN-hJjxFnHQ5Um4-7" target="MRnNkrN-hJjxFnHQ5Um4-1">
          <mxGeometry width="100" height="100" relative="1" as="geometry">
            <mxPoint x="714.6446609406726" y="164.64466094067257" as="sourcePoint"/>
            <mxPoint x="722" y="260" as="targetPoint"/>
          </mxGeometry>
        </mxCell>
        <mxCell id="MRnNkrN-hJjxFnHQ5Um4-22" value="" style="fontSize=12;html=1;endArrow=none;endFill=0;entryX=0.97;entryY=0;entryDx=0;entryDy=0;exitX=0;exitY=0.5;exitDx=0;exitDy=0;entryPerimeter=0;" edge="1" parent="1" source="MRnNkrN-hJjxFnHQ5Um4-6" target="MRnNkrN-hJjxFnHQ5Um4-1">
          <mxGeometry width="100" height="100" relative="1" as="geometry">
            <mxPoint x="724.6446609406726" y="174.64466094067257" as="sourcePoint"/>
            <mxPoint x="690" y="140" as="targetPoint"/>
          </mxGeometry>
        </mxCell>
        <mxCell id="MRnNkrN-hJjxFnHQ5Um4-23" value="" style="fontSize=12;html=1;endArrow=none;endFill=0;entryX=0.75;entryY=0.03;entryDx=0;entryDy=0;entryPerimeter=0;" edge="1" parent="1" source="MRnNkrN-hJjxFnHQ5Um4-1" target="MRnNkrN-hJjxFnHQ5Um4-5">
          <mxGeometry width="100" height="100" relative="1" as="geometry">
            <mxPoint x="734.6446609406726" y="184.64466094067257" as="sourcePoint"/>
            <mxPoint x="700" y="150" as="targetPoint"/>
          </mxGeometry>
        </mxCell>
        <mxCell id="MRnNkrN-hJjxFnHQ5Um4-24" value="" style="fontSize=12;html=1;endArrow=none;endFill=0;" edge="1" parent="1" source="MRnNkrN-hJjxFnHQ5Um4-1" target="MRnNkrN-hJjxFnHQ5Um4-13">
          <mxGeometry width="100" height="100" relative="1" as="geometry">
            <mxPoint x="744.6446609406726" y="194.64466094067257" as="sourcePoint"/>
            <mxPoint x="710" y="160" as="targetPoint"/>
          </mxGeometry>
        </mxCell>
        <mxCell id="MRnNkrN-hJjxFnHQ5Um4-25" value="" style="fontSize=12;html=1;endArrow=none;endFill=0;" edge="1" parent="1" source="MRnNkrN-hJjxFnHQ5Um4-1" target="MRnNkrN-hJjxFnHQ5Um4-2">
          <mxGeometry width="100" height="100" relative="1" as="geometry">
            <mxPoint x="754.6446609406726" y="204.64466094067257" as="sourcePoint"/>
            <mxPoint x="720" y="170" as="targetPoint"/>
          </mxGeometry>
        </mxCell>
      </root>
    </mxGraphModel>
  </diagram>
</mxfile>
